<svg width="51" height="51" xmlns="http://www.w3.org/2000/svg">
 <style type="text/css">.st0{fill:#8C827A;}
	.st1{fill:#FFFFFF;}
	.st2{fill:#F5A800;}</style>

 <g>
  <title>background</title>
  <rect fill="none" id="canvas_background" height="53" width="53" y="-1" x="-1"/>
 </g>
 <g>
  <title>Layer 1</title>
  <g stroke="null" id="Layer_2">
   <g stroke="null" id="svg_1">
    <g stroke="null" id="svg_2">
     <polygon stroke="null" id="svg_3" points="13.437911033630371,37.27284622192383 19.99972915649414,45.394779205322266 29.58206558227539,45.394779205322266 36.03972816467285,37.27284622192383 31.66518211364746,28.656526565551758 17.91661262512207,28.656526565551758 " class="st1"/>
     <polygon stroke="null" id="svg_4" points="26.14492416381836,14.319540023803711 24.7908992767334,10.858887672424316 23.436872482299805,14.319540023803711 17.91661262512207,28.656526565551758 31.66518211364746,28.656526565551758 " class="st0"/>
     <polygon stroke="null" id="svg_5" points="9.271677494049072,45.394779205322266 19.99972915649414,45.394779205322266 13.437911033630371,37.27284622192383 " class="st0"/>
     <polygon stroke="null" id="svg_6" points="40.31011772155762,45.394779205322266 36.03972816467285,37.27284622192383 29.58206558227539,45.394779205322266 " class="st0"/>
     <polygon stroke="null" id="svg_7" points="6.563625752925873,28.656526565551758 13.437911033630371,37.27284622192383 17.91661262512207,28.656526565551758 " class="st0"/>
     <polygon stroke="null" id="svg_8" points="24.7908992767334,51.32733154296875 29.58206558227539,45.394779205322266 19.99972915649414,45.394779205322266 " class="st0"/>
     <polygon stroke="null" id="svg_9" points="43.018171310424805,28.656526565551758 31.66518211364746,28.656526565551758 36.03972816467285,37.27284622192383 " class="st0"/>
    </g>
    <g stroke="null" id="svg_10">
     <path stroke="null" id="svg_11" d="m24.7909,0.61818l-4.06208,6.9213c-1.04156,2.47189 1.14571,5.01441 4.06208,5.01441l0,0c3.02052,0 5.10364,-2.61315 4.06208,-5.01441l-4.06208,-6.9213z" class="st2"/>
    </g>
   </g>
  </g>
 </g>
</svg>